<svg width="60" height="24" viewBox="0 0 60 24" fill="none" xmlns="http://www.w3.org/2000/svg">
<path d="M10 20L2 12L10 4" stroke="#C4C4C4" stroke-width="3" stroke-miterlimit="10" stroke-linecap="round" stroke-linejoin="round"/>
<path d="M27.152 12.288C27.7493 12.3947 28.256 12.7093 28.672 13.232C29.088 13.7547 29.296 14.3467 29.296 15.008C29.296 15.5733 29.1467 16.0853 28.848 16.544C28.56 16.992 28.1387 17.3493 27.584 17.616C27.0293 17.872 26.384 18 25.648 18H21.2V6.88H25.44C26.1973 6.88 26.848 7.008 27.392 7.264C27.936 7.52 28.3467 7.86667 28.624 8.304C28.9013 8.73067 29.04 9.21067 29.04 9.744C29.04 10.384 28.8693 10.9173 28.528 11.344C28.1867 11.7707 27.728 12.0853 27.152 12.288ZM23.024 11.552H25.28C25.8773 11.552 26.3413 11.4187 26.672 11.152C27.0133 10.8747 27.184 10.48 27.184 9.968C27.184 9.46667 27.0133 9.07733 26.672 8.8C26.3413 8.512 25.8773 8.368 25.28 8.368H23.024V11.552ZM25.488 16.512C26.1067 16.512 26.592 16.3627 26.944 16.064C27.296 15.7653 27.472 15.3493 27.472 14.816C27.472 14.272 27.2853 13.84 26.912 13.52C26.5387 13.2 26.0427 13.04 25.424 13.04H23.024V16.512H25.488ZM30.7501 13.552C30.7501 12.6667 30.9315 11.8827 31.2941 11.2C31.6675 10.5173 32.1688 9.98933 32.7981 9.616C33.4381 9.232 34.1421 9.04 34.9101 9.04C35.6035 9.04 36.2061 9.17867 36.7181 9.456C37.2408 9.72267 37.6568 10.0587 37.9661 10.464V9.184H39.8061V18H37.9661V16.688C37.6568 17.104 37.2355 17.4507 36.7021 17.728C36.1688 18.0053 35.5608 18.144 34.8781 18.144C34.1208 18.144 33.4275 17.952 32.7981 17.568C32.1688 17.1733 31.6675 16.6293 31.2941 15.936C30.9315 15.232 30.7501 14.4373 30.7501 13.552ZM37.9661 13.584C37.9661 12.976 37.8381 12.448 37.5821 12C37.3368 11.552 37.0115 11.2107 36.6061 10.976C36.2008 10.7413 35.7635 10.624 35.2941 10.624C34.8248 10.624 34.3875 10.7413 33.9821 10.976C33.5768 11.2 33.2461 11.536 32.9901 11.984C32.7448 12.4213 32.6221 12.944 32.6221 13.552C32.6221 14.16 32.7448 14.6933 32.9901 15.152C33.2461 15.6107 33.5768 15.9627 33.9821 16.208C34.3981 16.4427 34.8355 16.56 35.2941 16.56C35.7635 16.56 36.2008 16.4427 36.6061 16.208C37.0115 15.9733 37.3368 15.632 37.5821 15.184C37.8381 14.7253 37.9661 14.192 37.9661 13.584ZM41.6739 13.584C41.6739 12.6773 41.8552 11.8827 42.2179 11.2C42.5912 10.5067 43.1032 9.97333 43.7539 9.6C44.4045 9.22667 45.1512 9.04 45.9939 9.04C47.0605 9.04 47.9405 9.296 48.6339 9.808C49.3379 10.3093 49.8125 11.0293 50.0579 11.968H48.0899C47.9299 11.5307 47.6739 11.1893 47.3219 10.944C46.9699 10.6987 46.5272 10.576 45.9939 10.576C45.2472 10.576 44.6499 10.8427 44.2019 11.376C43.7645 11.8987 43.5459 12.6347 43.5459 13.584C43.5459 14.5333 43.7645 15.2747 44.2019 15.808C44.6499 16.3413 45.2472 16.608 45.9939 16.608C47.0499 16.608 47.7485 16.144 48.0899 15.216H50.0579C49.8019 16.112 49.3219 16.8267 48.6179 17.36C47.9139 17.8827 47.0392 18.144 45.9939 18.144C45.1512 18.144 44.4045 17.9573 43.7539 17.584C43.1032 17.2 42.5912 16.6667 42.2179 15.984C41.8552 15.2907 41.6739 14.4907 41.6739 13.584ZM55.4436 13.6L59.5076 18H57.0436L53.7796 14.208V18H51.9556V6.16H53.7796V13.04L56.9796 9.184H59.5076L55.4436 13.6Z" fill="#C4C4C4"/>
</svg>
