<svg width="40" height="40" viewBox="0 0 40 40" fill="none" xmlns="http://www.w3.org/2000/svg">
<path d="M19.1162 25.8844L18.2324 26.7681C18.7199 27.2556 19.3599 27.4994 19.9999 27.4994C20.6399 27.4994 21.2799 27.2556 21.7674 26.7681L20.8837 25.8844C20.3962 26.3713 19.6037 26.3713 19.1162 25.8844Z" fill="black"/>
<path d="M25.3344 18.4918L26.2181 17.6081C25.2431 16.6324 23.6575 16.6324 22.6831 17.6081L23.5669 18.4918C24.0544 18.0049 24.8469 18.0049 25.3344 18.4918Z" fill="black"/>
<path d="M24.6875 37.5006C25.2053 37.5006 25.625 37.0809 25.625 36.5631C25.625 36.0453 25.2053 35.6256 24.6875 35.6256C24.1697 35.6256 23.75 36.0453 23.75 36.5631C23.75 37.0809 24.1697 37.5006 24.6875 37.5006Z" fill="black"/>
<path d="M24.0625 21.8756C24.5803 21.8756 25 21.4559 25 20.9381C25 20.4203 24.5803 20.0006 24.0625 20.0006C23.5447 20.0006 23.125 20.4203 23.125 20.9381C23.125 21.4559 23.5447 21.8756 24.0625 21.8756Z" fill="black"/>
<path d="M15.9375 21.8756C16.4553 21.8756 16.875 21.4559 16.875 20.9381C16.875 20.4203 16.4553 20.0006 15.9375 20.0006C15.4197 20.0006 15 20.4203 15 20.9381C15 21.4559 15.4197 21.8756 15.9375 21.8756Z" fill="black"/>
<path d="M19.9994 24.3756C21.0338 24.3756 21.875 23.5344 21.875 22.5006V20.0006H20.625V22.5006C20.625 22.8456 20.3444 23.1256 19.9994 23.1256C19.655 23.1256 19.375 22.8456 19.375 22.5006V20.0006H18.125V22.5006C18.125 23.5344 18.9656 24.3756 19.9994 24.3756Z" fill="black"/>
<path d="M26.6262 27.8125C27.0993 27.1462 27.4762 26.4075 27.7324 25.6137C29.6918 25.4931 31.2499 23.8656 31.2499 21.8756C31.2499 20.0212 29.8956 18.4806 28.1249 18.1818V10.6268C28.1249 7.52496 24.4799 5.00183 19.9999 5.00183C15.5199 5.00183 11.8749 7.52496 11.8749 10.6268V18.1837C10.1043 18.4831 8.74995 20.0225 8.74995 21.8768C8.74995 23.8668 10.3087 25.4943 12.2681 25.615C12.5287 26.4237 12.9168 27.1743 13.4024 27.8506C9.88682 29.4475 7.03807 32.925 5.69495 37.3175L6.89057 37.6825C7.88432 34.4325 9.75245 31.7331 12.0999 30.045C12.9474 32.5243 16.1631 34.3762 19.9993 34.3762C23.8537 34.3762 27.0831 32.5068 27.9118 30.01C30.2518 31.7106 32.1168 34.4218 33.1131 37.6843L34.3087 37.3193C32.9643 32.9143 30.1256 29.425 26.6262 27.8125ZM29.9999 21.8756C29.9999 23.0731 29.1531 24.0743 28.0274 24.3168C28.0856 23.9275 28.1249 23.5318 28.1249 23.1268V19.4643C29.1999 19.7437 29.9999 20.7143 29.9999 21.8756ZM19.9999 6.25183C23.4562 6.25183 26.3162 7.88496 26.7962 10.0006C26.1087 11.2587 22.7418 16.6937 15.4312 17.8893C17.1593 16.6218 19.3874 14.3262 21.1962 10.2543L20.0537 9.74683C17.6881 15.0712 14.5599 17.1243 13.1249 17.825V10.6268C13.1249 8.21496 16.2093 6.25183 19.9999 6.25183ZM9.99995 21.8768C9.99995 20.7156 10.7993 19.745 11.8749 19.4656V23.1268C11.8749 23.5325 11.9143 23.9281 11.9724 24.3181C10.8468 24.0756 9.99995 23.0743 9.99995 21.8768ZM13.1249 19.36C20.6731 19.1287 24.9743 14.7718 26.8749 12.1725V23.1268C26.8749 26.9175 23.7906 30.0018 19.9999 30.0018C16.2093 30.0018 13.1249 26.9175 13.1249 23.1268V19.36ZM19.9999 33.1268C16.5312 33.1268 13.6618 31.4812 13.1981 29.3543C13.5387 29.1656 13.8881 29.0006 14.2437 28.8543C15.7162 30.3337 17.7524 31.2518 19.9999 31.2518C22.2662 31.2518 24.3168 30.3168 25.7924 28.815C26.1393 28.9606 26.4799 29.1243 26.8124 29.3106C26.3793 31.4593 23.4931 33.1268 19.9999 33.1268Z" fill="black"/>
</svg>
