<svg width="30" height="30" viewBox="0 0 30 30" fill="none" xmlns="http://www.w3.org/2000/svg">
<path d="M22.0687 10.1838C22.0687 10.386 22.0511 10.5911 22.0247 10.7903C22.0365 10.7112 22.0453 10.635 22.057 10.5559C21.9193 11.5491 21.5677 12.5071 21.181 13.427C21.2103 13.3567 21.2396 13.2864 21.2689 13.2161C20.5189 14.9885 19.5726 16.676 18.5794 18.3196C17.5951 19.9485 16.5462 21.5393 15.4564 23.1008C15.0579 23.6692 14.6595 24.2375 14.2435 24.7942C14.7503 24.7942 15.2542 24.7942 15.7611 24.7942C14.847 23.5667 13.9798 22.301 13.1361 21.0237C12.0755 19.4153 11.056 17.7776 10.1361 16.0842C9.6263 15.1497 9.14583 14.1946 8.73275 13.2131C8.76205 13.2834 8.79134 13.3538 8.82064 13.4241C8.43392 12.5042 8.07943 11.5461 7.94466 10.553C7.95638 10.6321 7.96517 10.7083 7.97689 10.7874C7.90365 10.2336 7.93001 9.67407 8.00326 9.12036C7.99154 9.19946 7.98275 9.27563 7.97103 9.35474C8.06478 8.6604 8.24935 7.98364 8.51888 7.33618C8.48958 7.40649 8.46029 7.47681 8.43099 7.54712C8.58626 7.17798 8.7679 6.82056 8.97884 6.47778C9.07845 6.31372 9.18685 6.15259 9.29818 5.99731C9.32748 5.9563 9.3597 5.91528 9.389 5.87427C9.40072 5.85962 9.42416 5.8186 9.43587 5.81274C9.45052 5.80688 9.30404 5.97974 9.35677 5.91528C9.42123 5.83618 9.48568 5.75415 9.55013 5.67798C9.80501 5.37622 10.0833 5.09204 10.3822 4.82837C10.4554 4.76392 10.5286 4.70239 10.6019 4.64087C10.637 4.61157 10.6722 4.5852 10.7074 4.55591C10.8451 4.44751 10.5286 4.69067 10.6986 4.5647C10.8538 4.45044 11.012 4.33911 11.1732 4.23657C11.554 3.99341 11.9554 3.78247 12.3714 3.60669C12.3011 3.63599 12.2308 3.66528 12.1605 3.69458C12.8079 3.42505 13.4847 3.24048 14.179 3.14673C14.0999 3.15845 14.0238 3.16724 13.9447 3.17895C14.6478 3.08813 15.3597 3.08813 16.0628 3.17895C15.9837 3.16724 15.9076 3.15845 15.8285 3.14673C16.5228 3.24048 17.1995 3.42505 17.847 3.69458C17.7767 3.66528 17.7064 3.63599 17.6361 3.60669C18.0052 3.76196 18.3626 3.9436 18.7054 4.15454C18.8695 4.25415 19.0306 4.36255 19.1859 4.47388C19.2269 4.50317 19.2679 4.5354 19.3089 4.5647C19.3236 4.57642 19.3646 4.59985 19.3704 4.61157C19.3763 4.62622 19.2035 4.47974 19.2679 4.53247C19.347 4.59692 19.429 4.66138 19.5052 4.72583C19.807 4.98071 20.0911 5.25903 20.3548 5.55786C20.4193 5.6311 20.4808 5.70434 20.5423 5.77759C20.5716 5.81274 20.598 5.8479 20.6273 5.88306C20.7357 6.02075 20.4925 5.70434 20.6185 5.87427C20.7327 6.02954 20.8441 6.18774 20.9466 6.34888C21.1898 6.72974 21.4007 7.1311 21.5765 7.54712C21.5472 7.47681 21.5179 7.40649 21.4886 7.33618C21.7581 7.98364 21.9427 8.6604 22.0365 9.35474C22.0247 9.27563 22.016 9.19946 22.0042 9.12036C22.0452 9.47778 22.0687 9.82935 22.0687 10.1838C22.0687 10.6438 22.473 11.0833 22.9476 11.0627C23.4222 11.0422 23.8265 10.676 23.8265 10.1838C23.8236 8.61938 23.4046 7.06079 22.6107 5.71313C21.8431 4.40942 20.7298 3.302 19.4202 2.54321C18.0667 1.75806 16.4994 1.34497 14.9378 1.35669C13.3763 1.36841 11.8177 1.79907 10.4788 2.60181C9.18685 3.37524 8.08822 4.48852 7.34115 5.79517C6.57357 7.13403 6.14876 8.70142 6.17513 10.2454C6.19564 11.4788 6.6263 12.6975 7.09798 13.8225C7.71029 15.2844 8.43978 16.6877 9.22787 18.0588C9.98958 19.3801 10.8011 20.6721 11.639 21.9436C12.4271 23.1331 13.2357 24.3108 14.0794 25.4622C14.1322 25.5354 14.1878 25.6086 14.2406 25.6819C14.431 25.9397 14.6624 26.1184 14.9994 26.1184C15.3363 26.1184 15.5677 25.9397 15.7581 25.6819C17.0355 23.9651 18.2337 22.1838 19.3734 20.3733C20.7562 18.179 22.0716 15.9143 23.0326 13.5002C23.4515 12.4514 23.8206 11.3176 23.8236 10.178C23.8265 9.71802 23.4193 9.27856 22.9447 9.29907C22.4701 9.32544 22.0687 9.69165 22.0687 10.1838Z" fill="#C4C4C4"/>
<path d="M16.5207 10.1837C16.5207 10.2921 16.5119 10.4005 16.5002 10.5089C16.5119 10.4298 16.5207 10.3536 16.5324 10.2745C16.5031 10.4854 16.4474 10.6876 16.3654 10.8839C16.3947 10.8136 16.424 10.7432 16.4533 10.6729C16.3947 10.8106 16.3244 10.9395 16.2424 11.0655C16.2219 11.0977 16.1984 11.127 16.175 11.1593C16.1193 11.2442 16.3185 10.9835 16.2307 11.086C16.1808 11.1446 16.131 11.2032 16.0754 11.2559C16.0256 11.3057 15.9728 11.3526 15.9201 11.3995C15.8029 11.505 15.9904 11.3555 15.9933 11.3468C15.9904 11.3643 15.9172 11.4024 15.8996 11.4141C15.7707 11.502 15.6359 11.5723 15.4924 11.6339C15.5627 11.6046 15.633 11.5753 15.7033 11.546C15.507 11.628 15.3049 11.6837 15.0939 11.713C15.173 11.7012 15.2492 11.6925 15.3283 11.6807C15.1115 11.7071 14.8947 11.7071 14.6779 11.6807C14.757 11.6925 14.8332 11.7012 14.9123 11.713C14.7014 11.6837 14.4992 11.628 14.3029 11.546C14.3732 11.5753 14.4435 11.6046 14.5139 11.6339C14.3762 11.5753 14.2473 11.505 14.1213 11.4229C14.0891 11.4024 14.0598 11.379 14.0275 11.3555C13.9426 11.2999 14.2033 11.4991 14.1008 11.4112C14.0422 11.3614 13.9836 11.3116 13.9308 11.2559C13.881 11.2061 13.8342 11.1534 13.7873 11.1007C13.6818 10.9835 13.8312 11.171 13.84 11.1739C13.8224 11.171 13.7844 11.0977 13.7726 11.0802C13.6848 10.9512 13.6144 10.8165 13.5529 10.6729C13.5822 10.7432 13.6115 10.8136 13.6408 10.8839C13.5588 10.6876 13.5031 10.4854 13.4738 10.2745C13.4855 10.3536 13.4943 10.4298 13.506 10.5089C13.4797 10.2921 13.4797 10.0753 13.506 9.85847C13.4943 9.93758 13.4855 10.0137 13.4738 10.0928C13.5031 9.88191 13.5588 9.67976 13.6408 9.48347C13.6115 9.55379 13.5822 9.6241 13.5529 9.69441C13.6115 9.55672 13.6818 9.42781 13.7639 9.30183C13.7844 9.26961 13.8078 9.24031 13.8312 9.20808C13.8869 9.12312 13.6877 9.38386 13.7756 9.28133C13.8254 9.22273 13.8752 9.16414 13.9308 9.1114C13.9807 9.0616 14.0334 9.01472 14.0861 8.96785C14.2033 8.86238 14.0158 9.01179 14.0129 9.02058C14.0158 9.00301 14.0891 8.96492 14.1066 8.9532C14.2355 8.86531 14.3703 8.795 14.5139 8.73347C14.4435 8.76277 14.3732 8.79207 14.3029 8.82136C14.4992 8.73933 14.7014 8.68367 14.9123 8.65437C14.8332 8.66609 14.757 8.67488 14.6779 8.6866C14.8947 8.66023 15.1115 8.66023 15.3283 8.6866C15.2492 8.67488 15.173 8.66609 15.0939 8.65437C15.3049 8.68367 15.507 8.73933 15.7033 8.82136C15.633 8.79207 15.5627 8.76277 15.4924 8.73347C15.6301 8.79207 15.759 8.86238 15.885 8.94441C15.9172 8.96492 15.9465 8.98836 15.9787 9.01179C16.0637 9.06746 15.8029 8.86824 15.9055 8.95613C15.9641 9.00594 16.0226 9.05574 16.0754 9.1114C16.1252 9.16121 16.1721 9.21394 16.2189 9.26668C16.3244 9.38386 16.175 9.19636 16.1662 9.19343C16.1838 9.19636 16.2219 9.26961 16.2336 9.28718C16.3215 9.41609 16.3918 9.55086 16.4533 9.69441C16.424 9.6241 16.3947 9.55379 16.3654 9.48347C16.4474 9.67976 16.5031 9.88191 16.5324 10.0928C16.5207 10.0137 16.5119 9.93758 16.5002 9.85847C16.5119 9.96687 16.5178 10.0753 16.5207 10.1837C16.5236 10.6436 16.9221 11.0831 17.3996 11.0626C17.8713 11.0421 18.2814 10.6759 18.2785 10.1837C18.2726 9.53621 18.0851 8.86531 17.7043 8.33504C17.2824 7.7491 16.7375 7.33015 16.0578 7.08113C14.8478 6.63875 13.3478 7.04011 12.5275 8.03328C12.0588 8.60164 11.7951 9.24324 11.7307 9.97566C11.675 10.6231 11.8537 11.3145 12.1906 11.8682C12.5187 12.4073 13.0109 12.8731 13.5881 13.1339C14.2648 13.4386 14.9709 13.5235 15.6974 13.3829C17.1945 13.0899 18.2639 11.6807 18.2785 10.1807C18.2814 9.72078 17.8713 9.28133 17.3996 9.30183C16.9191 9.3282 16.5236 9.69148 16.5207 10.1837Z" fill="#C4C4C4"/>
<path d="M22.0695 25.1777C22.0695 25.2128 22.0665 25.2509 22.0636 25.2861C22.0753 25.207 22.0841 25.1308 22.0958 25.0517C22.0841 25.1366 22.0607 25.2187 22.0285 25.2978C22.0578 25.2275 22.0871 25.1572 22.1164 25.0868C22.0929 25.1425 22.0636 25.1982 22.0314 25.2509C22.0138 25.2802 21.9904 25.3066 21.9728 25.3359C21.9347 25.3974 22.1398 25.1337 22.0636 25.2158C22.0548 25.2275 22.046 25.2392 22.0372 25.248C21.9874 25.3066 21.9347 25.3593 21.879 25.412C21.7912 25.4911 21.5978 25.6259 21.8556 25.4413C21.5392 25.6669 21.1994 25.8486 20.8419 25.998C20.9123 25.9687 20.9826 25.9394 21.0529 25.9101C20.0216 26.3408 18.9054 26.5663 17.8009 26.7187C17.88 26.707 17.9562 26.6982 18.0353 26.6865C16.0285 26.9531 13.9748 26.9531 11.9679 26.6865C12.047 26.6982 12.1232 26.707 12.2023 26.7187C11.0978 26.5693 9.98452 26.3408 8.95034 25.9101C9.02066 25.9394 9.09097 25.9687 9.16128 25.998C8.80093 25.8456 8.46695 25.664 8.14761 25.4413C8.07437 25.3886 8.33218 25.5908 8.2648 25.5322C8.25015 25.5175 8.23257 25.5058 8.21499 25.4911C8.18277 25.4648 8.15347 25.4384 8.12417 25.412C8.07144 25.3622 8.02163 25.3124 7.97183 25.2568C7.96011 25.2421 7.94839 25.2275 7.93667 25.2158C7.87222 25.1425 8.04507 25.3622 8.03628 25.3447C8.02163 25.3154 7.99527 25.289 7.97769 25.2597C7.94253 25.204 7.91323 25.1484 7.88687 25.0868C7.91616 25.1572 7.94546 25.2275 7.97476 25.2978C7.94253 25.2187 7.91909 25.1366 7.90737 25.0517C7.91909 25.1308 7.92788 25.207 7.9396 25.2861C7.93081 25.2128 7.93081 25.1367 7.9396 25.0634C7.92788 25.1425 7.91909 25.2187 7.90737 25.2978C7.91909 25.2128 7.94253 25.1337 7.97476 25.0546C7.94546 25.1249 7.91616 25.1952 7.88687 25.2656C7.91323 25.207 7.9396 25.1542 7.97476 25.1015C7.99234 25.0751 8.01284 25.0488 8.03042 25.0195C8.07144 24.9521 7.88101 25.2011 7.93374 25.1425C7.94546 25.1279 7.95718 25.1132 7.97183 25.0986C8.0187 25.0429 8.07144 24.9902 8.12417 24.9433C8.19741 24.8759 8.43472 24.7148 8.15054 24.9111C8.46987 24.6913 8.80093 24.5068 9.15835 24.3574C9.08804 24.3867 9.01773 24.4159 8.94741 24.4452C9.97573 24.0175 11.0832 23.789 12.1818 23.6396C12.1027 23.6513 12.0265 23.6601 11.9474 23.6718C12.3546 23.6161 12.7648 23.5751 13.172 23.5429C12.9201 23.3964 12.6652 23.2529 12.4132 23.1064C13.008 23.9765 13.6085 24.8437 14.2384 25.6904C14.4289 25.9482 14.6603 26.1269 14.9972 26.1269C15.3341 26.1269 15.5656 25.9482 15.756 25.6904C16.3859 24.8437 16.9894 23.9765 17.5812 23.1064C17.3292 23.2529 17.0744 23.3964 16.8224 23.5429C17.2326 23.5751 17.6398 23.6161 18.047 23.6718C17.9679 23.6601 17.8917 23.6513 17.8126 23.6396C18.9113 23.789 20.0216 24.0175 21.047 24.4452C20.9767 24.4159 20.9064 24.3867 20.8361 24.3574C21.0265 24.4365 21.2111 24.5243 21.3927 24.624C21.4747 24.6679 21.5539 24.7148 21.633 24.7646C21.7033 24.8085 21.7706 24.8759 21.8468 24.9111C21.8556 24.9169 21.6535 24.7558 21.7326 24.8232C21.7472 24.8349 21.7589 24.8466 21.7736 24.8554C21.8029 24.8788 21.8322 24.9052 21.8615 24.9316C21.9142 24.9814 21.9669 25.0341 22.0167 25.0868C22.0285 25.1015 22.0402 25.1161 22.0548 25.1308C22.1222 25.204 21.9523 24.9902 21.9581 25.0077C21.9728 25.037 21.9962 25.0605 22.0138 25.0898C22.049 25.1454 22.0812 25.204 22.1076 25.2626C22.0783 25.1923 22.049 25.122 22.0197 25.0517C22.0519 25.1308 22.0753 25.2099 22.0871 25.2949C22.0753 25.2158 22.0665 25.1396 22.0548 25.0605C22.0665 25.1015 22.0695 25.1396 22.0695 25.1777C22.0753 25.6376 22.4708 26.0771 22.9484 26.0566C23.4201 26.0361 23.8331 25.6699 23.8273 25.1777C23.8156 24.246 23.1007 23.5634 22.3419 23.1327C21.3986 22.5966 20.3087 22.3007 19.2511 22.0956C18.4513 21.9433 17.6398 21.8408 16.8283 21.7792C16.5119 21.7558 16.2365 21.9697 16.0695 22.2158C15.4748 23.0859 14.8742 23.9531 14.2443 24.7997C14.7511 24.7997 15.255 24.7997 15.7619 24.7997C15.132 23.9531 14.5285 23.0859 13.9367 22.2158C13.7697 21.9697 13.4943 21.7558 13.1779 21.7792C12.0089 21.87 10.8312 22.0312 9.69741 22.3359C9.20816 22.4677 8.73648 22.6347 8.27066 22.8339C7.9396 22.9745 7.61441 23.1357 7.31851 23.3466C6.7062 23.7861 6.13199 24.4189 6.17593 25.2275C6.21695 26.0273 6.74722 26.6132 7.3771 27.0439C8.048 27.5038 8.85952 27.7822 9.63882 27.999C10.6906 28.289 11.7775 28.4472 12.8615 28.5468C15.1642 28.7548 17.5519 28.6581 19.8107 28.1396C20.6691 27.9433 21.5333 27.6708 22.3068 27.2402C22.9367 26.8915 23.5226 26.3906 23.7511 25.6874C23.8039 25.5263 23.8244 25.3476 23.8273 25.1777C23.8331 24.7177 23.4201 24.2783 22.9484 24.2988C22.4679 24.3193 22.0753 24.6855 22.0695 25.1777Z" fill="#C4C4C4"/>
</svg>
