<svg width="25" height="25" viewBox="0 0 25 25" fill="none" xmlns="http://www.w3.org/2000/svg">
<path d="M19.637 14.2705C19.6145 14.1417 19.5473 14.0249 19.4473 13.9408C19.3472 13.8566 19.2206 13.8105 19.0899 13.8105H5.90952C5.77876 13.8105 5.6522 13.8566 5.55211 13.9408C5.45202 14.0249 5.38483 14.1417 5.36237 14.2705L3.60049 24.3487C3.58651 24.4286 3.59017 24.5105 3.61122 24.5888C3.63227 24.6671 3.67019 24.7398 3.72233 24.8018C3.77447 24.8639 3.83957 24.9138 3.91304 24.948C3.98651 24.9822 4.06658 24.9999 4.14763 24.9999H20.8517C20.9328 24.9999 21.0129 24.9822 21.0863 24.948C21.1598 24.9138 21.2249 24.8639 21.277 24.8018C21.3292 24.7398 21.3671 24.6671 21.3881 24.5888C21.4092 24.5105 21.4129 24.4286 21.3989 24.3487L19.637 14.2705ZM4.80871 23.8888L6.37637 14.9217H18.623L20.1907 23.8888H4.80871Z" fill="#0066FF"/>
<path d="M8.38871 17.367H16.6092C16.7197 17.367 16.8257 17.3231 16.9038 17.245C16.982 17.1668 17.0259 17.0609 17.0259 16.9504C17.0259 16.8399 16.982 16.7339 16.9038 16.6557C16.8257 16.5776 16.7197 16.5337 16.6092 16.5337H8.38871C8.27821 16.5337 8.17222 16.5776 8.09408 16.6557C8.01594 16.7339 7.97205 16.8399 7.97205 16.9504C7.97205 17.0609 8.01594 17.1668 8.09408 17.245C8.17222 17.3231 8.27821 17.367 8.38871 17.367Z" fill="#0066FF"/>
<path d="M8.11357 19.8219H16.8858C16.9963 19.8219 17.1023 19.778 17.1804 19.6998C17.2586 19.6217 17.3025 19.5157 17.3025 19.4052C17.3025 19.2947 17.2586 19.1887 17.1804 19.1106C17.1023 19.0324 16.9963 18.9885 16.8858 18.9885H8.11357C8.00306 18.9885 7.89708 19.0324 7.81894 19.1106C7.7408 19.1887 7.6969 19.2947 7.6969 19.4052C7.6969 19.5157 7.7408 19.6217 7.81894 19.6998C7.89708 19.778 8.00306 19.8219 8.11357 19.8219Z" fill="#0066FF"/>
<path d="M17.161 21.4436H7.83695C7.72645 21.4436 7.62047 21.4875 7.54233 21.5656C7.46419 21.6438 7.42029 21.7498 7.42029 21.8603C7.42029 21.9708 7.46419 22.0768 7.54233 22.1549C7.62047 22.233 7.72645 22.2769 7.83695 22.2769H17.161C17.2715 22.2769 17.3775 22.233 17.4556 22.1549C17.5337 22.0768 17.5776 21.9708 17.5776 21.8603C17.5776 21.7498 17.5337 21.6438 17.4556 21.5656C17.3775 21.4875 17.2715 21.4436 17.161 21.4436Z" fill="#0066FF"/>
<path d="M22.3566 5.23877H2.6434C2.29626 5.23877 1.95252 5.30714 1.63181 5.43999C1.3111 5.57283 1.01969 5.76754 0.774226 6.01301C0.528763 6.25847 0.334052 6.54988 0.20121 6.87059C0.0683679 7.19131 -3.28296e-06 7.53505 1.18231e-10 7.88218V15.6509C-1.8238e-06 15.998 0.0683704 16.3418 0.201213 16.6625C0.334055 16.9832 0.528766 17.2746 0.774229 17.5201C1.01969 17.7655 1.3111 17.9602 1.63181 18.0931C1.95252 18.2259 2.29626 18.2943 2.6434 18.2943H3.53116L4.26805 14.0793C4.33499 13.6926 4.53647 13.3421 4.8369 13.0896C5.13733 12.8371 5.51734 12.699 5.90977 12.6996H19.0901C19.4826 12.699 19.8626 12.8372 20.1631 13.0897C20.4635 13.3423 20.665 13.6929 20.7318 14.0797L21.4686 18.2943H22.3566C23.0576 18.2943 23.73 18.0158 24.2257 17.5201C24.7215 17.0243 25 16.352 25 15.6509V7.88218C25 7.18111 24.7215 6.50875 24.2257 6.01301C23.73 5.51727 23.0576 5.23877 22.3566 5.23877ZM22.0735 9.14733C21.8793 9.14733 21.6894 9.08973 21.5279 8.98182C21.3664 8.87391 21.2405 8.72054 21.1662 8.54109C21.0919 8.36164 21.0724 8.16418 21.1103 7.97368C21.1482 7.78318 21.2417 7.6082 21.3791 7.47085C21.5164 7.33351 21.6914 7.23998 21.8819 7.20209C22.0724 7.16419 22.2699 7.18364 22.4493 7.25797C22.6288 7.3323 22.7821 7.45817 22.89 7.61967C22.998 7.78117 23.0556 7.97104 23.0556 8.16527C23.0556 8.29423 23.0302 8.42194 22.9808 8.54109C22.9314 8.66024 22.8591 8.7685 22.7679 8.85969C22.6767 8.95088 22.5685 9.02322 22.4493 9.07257C22.3302 9.12193 22.2025 9.14733 22.0735 9.14733Z" fill="#0066FF"/>
<path d="M20 4.1276V0.555555C20 0.408215 19.9415 0.266912 19.8373 0.162727C19.7331 0.0585413 19.5918 7.36646e-06 19.4444 0H5.55556C5.40822 7.36646e-06 5.26691 0.0585413 5.16273 0.162727C5.05854 0.266912 5.00001 0.408215 5 0.555555V4.1276H6.11111V1.11111H18.8889V4.1276H20Z" fill="#0066FF"/>
</svg>
